<svg xmlns="http://www.w3.org/2000/svg" width="16" height="16" viewBox="0 0 16 16"><path d="M8,16c-2.191,0-2.47-.009-3.3-.049a5.886,5.886,0,0,1-1.942-.372,3.915,3.915,0,0,1-1.417-.922A3.911,3.911,0,0,1,.42,13.24,5.947,5.947,0,0,1,.048,11.3C.009,10.456,0,10.174,0,8S.009,5.544.048,4.7A5.959,5.959,0,0,1,.42,2.759a3.915,3.915,0,0,1,.923-1.417A3.915,3.915,0,0,1,2.759.42,5.959,5.959,0,0,1,4.7.048C5.544.009,5.826,0,8,0s2.456.009,3.3.048A5.947,5.947,0,0,1,13.24.42a3.911,3.911,0,0,1,1.417.923,3.915,3.915,0,0,1,.922,1.417A5.886,5.886,0,0,1,15.952,4.7C15.991,5.53,16,5.809,16,8s-.009,2.47-.049,3.3a5.865,5.865,0,0,1-.372,1.941,4.086,4.086,0,0,1-2.34,2.34,5.865,5.865,0,0,1-1.941.372C10.47,15.991,10.191,16,8,16ZM8,1.442c-2.128,0-2.382.008-3.233.046a4.438,4.438,0,0,0-1.486.275,2.491,2.491,0,0,0-.92.6,2.491,2.491,0,0,0-.6.92,4.438,4.438,0,0,0-.275,1.486c-.038.851-.046,1.1-.046,3.233s.008,2.381.046,3.233a4.5,4.5,0,0,0,.275,1.485,2.483,2.483,0,0,0,.6.92,2.475,2.475,0,0,0,.92.6,4.42,4.42,0,0,0,1.486.275c.836.039,1.088.047,3.233.047s2.4-.008,3.233-.047a4.4,4.4,0,0,0,1.485-.275,2.65,2.65,0,0,0,1.518-1.518,4.4,4.4,0,0,0,.275-1.485c.039-.837.047-1.089.047-3.233s-.008-2.4-.047-3.233a4.42,4.42,0,0,0-.275-1.486,2.475,2.475,0,0,0-.6-.92,2.483,2.483,0,0,0-.92-.6,4.5,4.5,0,0,0-1.485-.275C10.381,1.45,10.127,1.442,8,1.442Zm.016,10.685a4.111,4.111,0,1,1,4.11-4.11A4.115,4.115,0,0,1,8.016,12.127Zm0-6.78a2.669,2.669,0,1,0,2.668,2.669A2.672,2.672,0,0,0,8.016,5.347Zm4.238-.68a.952.952,0,1,1,.952-.952A.954.954,0,0,1,12.254,4.667Z" fill="#fff"/></svg>