<svg height="126" viewBox="0 0 122 126" width="122" xmlns="http://www.w3.org/2000/svg"><path d="m272.081 126.688h7.039c4.11 0 6.6 2.469 6.6 6.037v.049c0 4.042-3.1 6.137-6.966 6.137h-2.879v5.239h-3.791v-17.462zm6.793 8.806c1.895 0 3-1.147 3-2.645v-.049c0-1.722-1.182-2.645-3.076-2.645h-2.929v5.339h3zm14.107-8.931h3.494l7.385 17.587h-3.96l-1.575-3.916h-7.286l-1.575 3.916h-3.864zm3.987 10.278-2.289-5.663-2.288 5.663zm9.4-10.153h7.876a6.814 6.814 0 0 1 5.021 1.77 5.528 5.528 0 0 1 1.477 3.993v.05a5.42 5.42 0 0 1 -3.692 5.413l4.208 6.236h-4.43l-3.691-5.588h-2.978v5.588h-3.791zm7.632 8.482c1.845 0 2.9-1 2.9-2.469v-.051c0-1.646-1.132-2.5-2.978-2.5h-3.765v5.015h3.843zm10.34-8.482h3.792v17.462h-3.792zm6.86 14.918 2.239-2.719a7.853 7.853 0 0 0 5.144 2.12c1.551 0 2.486-.623 2.486-1.647v-.049c0-.973-.59-1.472-3.47-2.22-3.47-.9-5.709-1.872-5.709-5.34v-.051c0-3.167 2.509-5.263 6.028-5.263a9.887 9.887 0 0 1 6.4 2.22l-1.968 2.9a8.02 8.02 0 0 0 -4.481-1.722c-1.451 0-2.214.673-2.214 1.522v.05c0 1.147.738 1.522 3.716 2.3 3.5.923 5.465 2.2 5.465 5.239v.05c0 3.467-2.61 5.413-6.326 5.413a10.882 10.882 0 0 1 -7.31-2.803zm-60.445 50.442h4.061l3.569 11.823 3.861-11.871h3.254l3.864 11.873 3.569-11.823h3.963l-5.883 17.586h-3.3l-3.89-11.425-3.889 11.425h-3.3zm28.743 0h13v3.417h-9.229v3.543h8.121v3.417h-8.121v3.668h9.353v3.418h-13.122v-17.463zm16.738 0h13v3.417h-9.236v3.543h8.121v3.417h-8.121v3.668h9.353v3.418h-13.12v-17.463zm16.738 0h3.791v7.633l6.991-7.633h4.578l-7.015 7.409 7.334 10.054h-4.553l-5.341-7.435-1.993 2.095v5.34h-3.791v-17.463zm-60.893-32.648h7.876a6.812 6.812 0 0 1 5.021 1.77 5.525 5.525 0 0 1 1.477 3.992v.05a5.42 5.42 0 0 1 -3.692 5.414l4.208 6.236h-4.43l-3.691-5.589h-2.978v5.589h-3.791zm7.63 8.48c1.846 0 2.9-1 2.9-2.468v-.05c0-1.647-1.132-2.5-2.978-2.5h-3.765v5.013h3.839zm10.163-8.48h13v3.417h-9.229v3.542h8.121v3.418h-8.121v3.667h9.353v3.418h-13.12v-17.462zm20.5 3.541h-5.242v-3.541h14.275v3.541h-5.243v13.921h-3.79v-13.926zm15.626-3.672h3.5l7.383 17.588h-3.963l-1.575-3.916h-7.285l-1.576 3.916h-3.864zm3.988 10.279-2.289-5.663-2.289 5.663zm9.72-10.153h3.792v17.462h-3.791v-17.457zm8.1 0h3.792v13.969h8.589v3.493h-12.381v-17.457zm44.181 71.605h-121.975v-4.736h117.3v-116.528h-117.3v-4.736h121.975z" fill-rule="evenodd" transform="translate(-270 -105)"/></svg>