<svg xmlns="http://www.w3.org/2000/svg" width="22.2" height="21.325" viewBox="0 0 22.2 21.325"><path d="M5.077,21.126a.959.959,0,0,1-.258-.043l-.052-.014a.846.846,0,0,1-.536-.789V16.895H4.062A4.066,4.066,0,0,1,0,12.833V4.062A4.066,4.066,0,0,1,4.062,0H17.939A4.066,4.066,0,0,1,22,4.062v8.771a4.066,4.066,0,0,1-4.061,4.062H9.477L5.7,20.872A.87.87,0,0,1,5.077,21.126ZM4.062,1.692a2.372,2.372,0,0,0-2.37,2.37v8.8a2.372,2.372,0,0,0,2.37,2.369H5.077a.827.827,0,0,1,.846.846v2.116L8.49,15.484a.871.871,0,0,1,.621-.254h8.828a2.371,2.371,0,0,0,2.369-2.369H20.28v-8.8a2.372,2.372,0,0,0-2.37-2.37Z" transform="translate(0.1 0.1)" fill="#fff" stroke="#fff" stroke-miterlimit="10" stroke-width="0.2"/></svg>