<svg width="284" height="170" viewBox="0 0 284 170" fill="none" xmlns="http://www.w3.org/2000/svg">
<mask id="mask0" mask-type="alpha" maskUnits="userSpaceOnUse" x="0" y="0" width="284" height="170">
<rect width="284" height="170" fill="#1C242D"/>
</mask>
<g mask="url(#mask0)">
<path d="M536.018 -59.0048C536.018 -59.0048 514.619 12.6735 405.746 31.8153C296.872 50.9252 320.992 -38.3393 275.562 -54.4019C230.131 -70.4644 97.2035 -54.9733 68.0598 84.0344C38.9383 223.01 -194.344 -138.778 -194.344 -138.778" stroke="url(#paint0_linear)" stroke-width="1.967" stroke-miterlimit="10"/>
<path d="M536.66 -52.9098C536.66 -52.9098 512.606 9.15 403.71 28.2917C294.836 47.4017 318.956 -34.9744 273.526 -51.0369C228.095 -67.0995 96.8935 -58.2429 67.7498 80.7331C38.6283 219.709 -198.327 -135.064 -198.327 -135.064" stroke="url(#paint1_linear)" stroke-width="1.967" stroke-miterlimit="10"/>
<path d="M537.302 -46.815C537.302 -46.815 510.57 5.65805 401.696 24.768C292.822 43.878 316.943 -31.6096 271.512 -47.6721C226.082 -63.7347 96.6062 -61.5443 67.4625 77.4316C38.3189 216.439 -202.332 -131.35 -202.332 -131.35" stroke="url(#paint2_linear)" stroke-width="1.967" stroke-miterlimit="10"/>
<path d="M537.942 -40.7201C537.942 -40.7201 508.555 2.1345 399.659 21.2762C290.786 40.3862 314.884 -28.2129 269.475 -44.2755C224.045 -60.338 96.2953 -64.7822 67.1516 74.1937C38.008 213.138 -206.316 -127.636 -206.316 -127.636" stroke="url(#paint3_linear)" stroke-width="1.967" stroke-miterlimit="10"/>
<path d="M538.585 -34.6253C538.585 -34.6253 506.52 -1.38919 397.646 17.7525C288.772 36.8625 312.871 -24.8481 267.44 -40.9424C222.01 -57.005 95.9862 -68.1154 66.8425 70.8605C37.6988 209.868 -210.299 -123.89 -210.299 -123.89" stroke="url(#paint4_linear)" stroke-width="1.967" stroke-miterlimit="10"/>
<path d="M539.226 -28.5304C539.226 -28.5304 504.484 -4.88101 395.61 14.229C286.737 33.3389 310.835 -21.4832 265.404 -37.5775C219.974 -53.64 95.6762 -71.4168 66.5326 67.5909C37.3889 206.567 -214.282 -120.176 -214.282 -120.176" stroke="url(#paint5_linear)" stroke-width="1.967" stroke-miterlimit="10"/>
<path d="M539.868 -22.4355C539.868 -22.4355 502.47 -8.40456 393.574 10.7054C284.7 29.8154 308.776 -18.1183 263.368 -34.2126C217.938 -50.2751 95.3661 -74.6863 66.2446 64.2896C37.0788 203.297 -218.266 -116.462 -218.266 -116.462" stroke="url(#paint6_linear)" stroke-width="1.967" stroke-miterlimit="10"/>
<path d="M540.488 -16.3405C540.488 -16.3405 500.413 -11.9281 391.539 7.21362C282.665 26.3236 306.741 -14.7534 261.311 -30.8159C215.88 -46.8784 95.0571 -77.956 65.9134 61.0517C36.7698 199.996 -222.248 -112.748 -222.248 -112.748" stroke="url(#paint7_linear)" stroke-width="1.967" stroke-miterlimit="10"/>
<path d="M541.129 -10.2775C541.129 -10.2775 498.398 -15.4518 389.503 3.65817C280.629 22.7682 304.705 -11.4203 259.274 -27.4828C213.844 -43.5454 94.7467 -81.2574 65.6031 57.7185C36.4816 196.726 -226.254 -109.002 -226.254 -109.002" stroke="url(#paint8_linear)" stroke-width="1.967" stroke-miterlimit="10"/>
<path d="M541.771 -4.18259C541.771 -4.18259 496.363 -18.9754 387.489 0.134612C278.615 19.2446 302.691 -8.05537 257.261 -24.1179C211.83 -40.1805 94.4589 -84.5588 65.3153 54.4171C36.1716 193.425 -230.237 -105.288 -230.237 -105.288" stroke="url(#paint9_linear)" stroke-width="1.967" stroke-miterlimit="10"/>
<path d="M542.413 1.91222C542.413 1.91222 494.327 -22.499 385.454 -3.35732C276.58 15.7527 300.634 -4.65882 255.203 -20.7214C209.773 -36.7839 94.1277 -87.7968 64.9841 51.1791C35.8625 190.155 -234.22 -101.574 -234.22 -101.574" stroke="url(#paint10_linear)" stroke-width="1.967" stroke-miterlimit="10"/>
<path d="M543.055 8.00713C543.055 8.00713 492.314 -25.9909 383.418 -6.88088C274.544 12.2291 298.598 -1.29391 253.167 -17.3564C207.737 -33.419 93.8178 -91.0981 64.6741 47.8778C35.5526 186.854 -238.203 -97.8596 -238.203 -97.8596" stroke="url(#paint11_linear)" stroke-width="1.967" stroke-miterlimit="10"/>
<path d="M543.696 14.1021C543.696 14.1021 490.277 -29.5144 381.404 -10.4044C272.53 8.70557 296.584 2.07104 251.153 -13.9915C205.723 -30.0541 93.5298 -94.3995 64.3862 44.6082C35.2425 183.616 -242.187 -94.1138 -242.187 -94.1138" stroke="url(#paint12_linear)" stroke-width="1.967" stroke-miterlimit="10"/>
<path d="M544.338 20.1968C544.338 20.1968 488.264 -33.0381 379.368 -13.8964C270.494 5.21361 294.526 5.46756 249.117 -10.6267C203.687 -26.6893 93.2199 -97.6692 64.0762 41.3067C34.9326 180.283 -246.17 -90.3998 -246.17 -90.3998" stroke="url(#paint13_linear)" stroke-width="1.967" stroke-miterlimit="10"/>
<path d="M544.957 26.2918C544.957 26.2918 486.205 -36.5616 377.332 -17.4199C268.458 1.72181 292.49 8.8325 247.059 -7.26179C201.629 -23.3561 92.8877 -100.971 63.7441 38.0054C34.6225 177.013 -250.153 -86.6857 -250.153 -86.6857" stroke="url(#paint14_linear)" stroke-width="1.967" stroke-miterlimit="10"/>
<path d="M545.6 32.3867C545.6 32.3867 484.192 -40.0535 375.296 -20.9435C266.4 -1.83348 290.454 12.1974 245.024 -3.89685C199.593 -19.9911 92.5784 -104.24 63.4569 34.7358C34.3132 173.712 -254.158 -82.9716 -254.158 -82.9716" stroke="url(#paint15_linear)" stroke-width="1.967" stroke-miterlimit="10"/>
<path d="M546.241 38.4815C546.241 38.4815 482.156 -43.5771 373.26 -24.4354C264.364 -5.29368 288.396 15.594 242.988 -0.500315C197.579 -16.5946 92.2905 -107.51 63.1468 31.4661C34.0031 170.442 -258.142 -79.2576 -258.142 -79.2576" stroke="url(#paint16_linear)" stroke-width="1.967" stroke-miterlimit="10"/>
<path d="M546.883 44.5447C546.883 44.5447 480.12 -47.1324 371.246 -27.9907C262.372 -8.84898 286.382 18.8954 240.952 2.83286C195.521 -13.2297 91.9804 -110.811 62.8367 28.1647C33.6931 167.141 -262.125 -75.5117 -262.125 -75.5117" stroke="url(#paint17_linear)" stroke-width="1.967" stroke-miterlimit="10"/>
<path d="M547.524 50.6396C547.524 50.6396 478.106 -50.6242 369.21 -31.5143C260.314 -12.4043 284.346 22.2921 238.915 6.1978C193.485 -9.86475 91.6703 -114.113 62.5267 24.8634C33.383 163.871 -266.108 -71.7976 -266.108 -71.7976" stroke="url(#paint18_linear)" stroke-width="1.967" stroke-miterlimit="10"/>
<path d="M548.167 56.7344C548.167 56.7344 476.071 -54.1479 367.197 -35.038C258.323 -15.928 282.333 25.6251 236.903 9.56258C191.472 -6.49996 91.3835 -117.414 62.2398 21.5936C33.0962 160.601 -270.091 -68.0836 -270.091 -68.0836" stroke="url(#paint19_linear)" stroke-width="1.967" stroke-miterlimit="10"/>
<path d="M548.808 62.8293C548.808 62.8293 474.057 -57.6715 365.161 -38.5298C256.287 -19.4198 280.275 29.0218 234.867 12.9593C189.436 -3.10328 91.0735 -120.652 61.9298 18.324C32.7862 157.3 -274.074 -64.3695 -274.074 -64.3695" stroke="url(#paint20_linear)" stroke-width="1.967" stroke-miterlimit="10"/>
<path d="M549.45 68.9241C549.45 68.9241 472.021 -61.1634 363.147 -42.0534C254.273 -22.9435 278.261 32.3866 232.83 16.3241C187.4 0.261515 90.7634 -123.953 61.6198 15.0226C32.4761 153.998 -278.058 -60.6238 -278.058 -60.6238" stroke="url(#paint21_linear)" stroke-width="1.967" stroke-miterlimit="10"/>
<path d="M550.07 75.019C550.07 75.019 469.963 -64.687 361.09 -45.577C252.216 -26.467 276.203 35.7515 230.773 19.6572C185.342 3.59469 90.4319 -127.255 61.2883 11.7212C32.1446 150.697 -282.062 -56.9097 -282.062 -56.9097" stroke="url(#paint22_linear)" stroke-width="1.967" stroke-miterlimit="10"/>
<path d="M550.711 81.114C550.711 81.114 467.949 -68.2105 359.054 -49.0688C250.18 -29.9588 274.145 39.1482 228.737 23.0539C183.306 6.99138 90.1219 -130.524 60.9783 8.45161C31.8346 147.428 -286.046 -53.1956 -286.046 -53.1956" stroke="url(#paint23_linear)" stroke-width="1.967" stroke-miterlimit="10"/>
<path d="M551.353 87.2088C551.353 87.2088 465.913 -71.7024 357.04 -52.5925C248.166 -33.4825 272.131 42.513 226.701 26.4187C181.27 10.3562 89.812 -133.826 60.6904 5.18191C31.5689 144.19 -290.029 -49.4815 -290.029 -49.4815" stroke="url(#paint24_linear)" stroke-width="1.967" stroke-miterlimit="10"/>
<path d="M551.994 93.2719C551.994 93.2719 463.899 -75.2578 355.004 -56.1478C246.13 -37.0379 270.095 45.8461 224.665 29.7519C179.234 13.6893 89.524 -137.095 60.3804 1.88049C31.2367 140.856 -294.013 -45.7675 -294.013 -45.7675" stroke="url(#paint25_linear)" stroke-width="1.967" stroke-miterlimit="10"/>
<path d="M552.637 99.3669C552.637 99.3669 461.864 -78.7813 352.991 -59.6396C244.117 -40.5296 268.06 49.2111 222.652 33.1486C177.221 17.0861 89.2372 -140.397 60.0935 -1.38905C30.9499 137.619 -297.995 -42.0216 -297.995 -42.0216" stroke="url(#paint26_linear)" stroke-width="1.967" stroke-miterlimit="10"/>
<path d="M553.278 105.462C553.278 105.462 459.828 -82.305 350.954 -63.1633C242.08 -44.0533 266.024 52.5759 220.593 36.5134C175.163 20.4508 88.9046 -143.666 59.761 -4.69053C30.6173 134.285 -302.001 -38.3076 -302.001 -38.3076" stroke="url(#paint27_linear)" stroke-width="1.967" stroke-miterlimit="10"/>
<path d="M553.92 111.557C553.92 111.557 457.814 -85.7969 348.918 -66.6869C240.044 -47.5769 263.988 55.9408 218.557 39.8783C173.127 23.8157 88.5947 -146.968 59.451 -7.99192C30.3073 130.984 -305.984 -34.5935 -305.984 -34.5935" stroke="url(#paint28_linear)" stroke-width="1.967" stroke-miterlimit="10"/>
<path d="M554.54 117.651C554.54 117.651 455.757 -89.3204 346.883 -70.1787C238.009 -51.0687 261.953 59.3375 216.522 43.2749C171.092 27.2124 88.2856 -150.206 59.142 -11.2298C29.9983 127.746 -309.967 -30.8477 -309.967 -30.8477" stroke="url(#paint29_linear)" stroke-width="1.967" stroke-miterlimit="10"/>
<path d="M555.181 123.746C555.181 123.746 453.743 -92.8441 344.847 -73.7023C235.973 -54.5923 259.894 62.7023 214.486 46.6398C169.056 30.5455 87.9756 -153.539 58.8319 -14.563C29.6883 124.413 -313.95 -27.1336 -313.95 -27.1336" stroke="url(#paint30_linear)" stroke-width="1.967" stroke-miterlimit="10"/>
<path d="M555.823 129.841C555.823 129.841 451.707 -96.3359 342.833 -77.2259C233.959 -58.1159 257.881 66.0672 212.45 49.9729C167.02 33.9104 87.6656 -156.84 58.5219 -17.8326C29.4004 121.143 -317.934 -23.4195 -317.934 -23.4195" stroke="url(#paint31_linear)" stroke-width="1.967" stroke-miterlimit="10"/>
<g opacity="0.36">
<path opacity="0.36" d="M417.119 -57.7032C417.119 -57.7032 403.975 -13.4836 336.88 -1.57953C269.785 10.3245 284.612 -44.7198 256.597 -54.5923C228.582 -64.4647 146.661 -54.751 128.781 30.9582C110.9 116.667 -33.0918 -106.081 -33.0918 -106.081" stroke="#00A49B" stroke-width="1.2124" stroke-miterlimit="10"/>
<path opacity="0.36" d="M417.518 -53.9573C417.518 -53.9573 402.714 -15.6739 335.619 -3.76984C268.524 8.13422 283.351 -42.6564 255.336 -52.5289C227.32 -62.4013 146.462 -56.7826 128.582 28.9266C110.702 114.636 -35.5479 -103.764 -35.5479 -103.764" stroke="#00A49B" stroke-width="1.2124" stroke-miterlimit="10"/>
<path opacity="0.36" d="M417.916 -50.2116C417.916 -50.2116 401.474 -17.8325 334.379 -5.92848C267.263 5.97557 282.089 -40.5931 254.096 -50.4338C226.081 -60.3062 146.284 -58.7825 128.404 26.9267C110.524 112.636 -37.9824 -101.447 -37.9824 -101.447" stroke="#00A49B" stroke-width="1.2124" stroke-miterlimit="10"/>
<path opacity="0.36" d="M418.314 -46.4658C418.314 -46.4658 400.212 -20.0229 333.118 -8.11889C266.023 3.78517 280.85 -38.5298 252.835 -48.3705C224.819 -58.2429 146.085 -60.8142 128.205 24.8633C110.325 110.573 -40.4609 -99.1929 -40.4609 -99.1929" stroke="#00A49B" stroke-width="1.2124" stroke-miterlimit="10"/>
<path opacity="0.36" d="M418.712 -42.6882C418.712 -42.6882 398.973 -22.1497 331.857 -10.2457C264.762 1.65839 279.588 -36.4029 251.573 -46.2753C223.558 -56.1477 145.886 -62.814 128.006 22.8635C110.126 108.573 -42.917 -96.8755 -42.917 -96.8755" stroke="#00A49B" stroke-width="1.2124" stroke-miterlimit="10"/>
<path opacity="0.36" d="M419.11 -38.9423C419.11 -38.9423 397.712 -24.34 330.617 -12.436C263.523 -0.531897 278.349 -34.3712 250.334 -44.2119C222.319 -54.0843 145.709 -64.8773 127.829 20.8319C109.949 106.541 -45.3516 -94.5898 -45.3516 -94.5898" stroke="#00A49B" stroke-width="1.2124" stroke-miterlimit="10"/>
<path opacity="0.36" d="M419.509 -35.1966C419.509 -35.1966 396.472 -26.4987 329.356 -14.5946C262.261 -2.69058 277.088 -32.2761 249.072 -42.1168C221.057 -51.9892 145.509 -66.8773 127.629 18.832C109.749 104.541 -47.8301 -92.2726 -47.8301 -92.2726" stroke="#00A49B" stroke-width="1.2124" stroke-miterlimit="10"/>
<path opacity="0.36" d="M419.907 -31.4508C419.907 -31.4508 395.212 -28.6891 328.117 -16.785C261.022 -4.88098 275.849 -30.2128 247.834 -40.0852C219.819 -49.9577 145.333 -68.9407 127.453 16.7368C109.573 102.414 -50.2637 -90.0505 -50.2637 -90.0505" stroke="#00A49B" stroke-width="1.2124" stroke-miterlimit="10"/>
<path opacity="0.36" d="M420.306 -27.6732C420.306 -27.6732 393.951 -30.8159 326.856 -18.9118C259.761 -7.00777 274.588 -28.1176 246.573 -37.9583C218.558 -47.8308 145.134 -70.9088 127.254 14.7687C109.374 100.478 -52.7197 -87.6697 -52.7197 -87.6697" stroke="#00A49B" stroke-width="1.2124" stroke-miterlimit="10"/>
<path opacity="0.36" d="M420.704 -23.9275C420.704 -23.9275 392.711 -33.0063 325.617 -21.0705C258.522 -9.16642 273.348 -26.0226 245.333 -35.8633C217.296 -45.7674 144.935 -72.9722 127.055 12.737C109.175 98.4463 -55.1982 -85.3842 -55.1982 -85.3842" stroke="#00A49B" stroke-width="1.2124" stroke-miterlimit="10"/>
<path opacity="0.36" d="M421.081 -20.1816C421.081 -20.1816 391.428 -35.1648 324.334 -23.2608C257.239 -11.3567 272.065 -23.9592 244.05 -33.8316C216.035 -43.704 144.736 -75.0038 126.856 10.7054C108.976 96.4146 -57.6543 -83.0985 -57.6543 -83.0985" stroke="#00A49B" stroke-width="1.2124" stroke-miterlimit="10"/>
<path opacity="0.36" d="M421.478 -16.4358C421.478 -16.4358 390.188 -37.3552 323.071 -25.4194C255.977 -13.5154 270.803 -21.8641 242.788 -31.7365C214.773 -41.609 144.536 -77.0037 126.656 8.67381C108.776 94.383 -60.1113 -80.813 -60.1113 -80.813" stroke="#00A49B" stroke-width="1.2124" stroke-miterlimit="10"/>
<path opacity="0.36" d="M421.877 -12.69C421.877 -12.69 388.927 -39.5138 321.833 -27.6097C254.738 -15.7057 269.564 -19.8324 241.549 -29.6731C213.534 -39.5138 144.36 -79.0353 126.479 6.64223C108.599 92.3515 -62.5449 -78.5273 -62.5449 -78.5273" stroke="#00A49B" stroke-width="1.2124" stroke-miterlimit="10"/>
<path opacity="0.36" d="M422.275 -8.91249C422.275 -8.91249 387.688 -41.6724 320.571 -29.7366C253.476 -17.8326 268.303 -17.7056 240.288 -27.578C212.272 -37.4505 144.16 -81.0669 126.258 4.64227C108.356 90.3515 -65.0459 -76.1783 -65.0459 -76.1783" stroke="#00A49B" stroke-width="1.2124" stroke-miterlimit="10"/>
<path opacity="0.36" d="M422.674 -5.1666C422.674 -5.1666 386.427 -43.831 319.332 -31.9269C252.238 -20.0229 267.064 -15.6422 239.049 -25.5146C211.034 -35.387 143.984 -83.0985 126.081 2.61071C108.201 88.3199 -67.4795 -73.8927 -67.4795 -73.8927" stroke="#00A49B" stroke-width="1.2124" stroke-miterlimit="10"/>
<path opacity="0.36" d="M423.072 -1.42084C423.072 -1.42084 385.187 -45.9896 318.07 -34.0856C250.954 -22.1815 265.802 -13.5789 237.787 -23.4195C209.772 -33.292 143.784 -85.0985 125.881 0.610781C108.001 86.32 -69.9365 -71.5754 -69.9365 -71.5754" stroke="#00A49B" stroke-width="1.2124" stroke-miterlimit="10"/>
<path opacity="0.36" d="M423.47 2.32506C423.47 2.32506 383.926 -48.1799 316.831 -36.2758C249.737 -24.3718 264.563 -11.5154 236.548 -21.3878C208.533 -31.2603 143.607 -87.1617 125.705 -1.48424C107.825 84.225 -72.3926 -69.3533 -72.3926 -69.3533" stroke="#00A49B" stroke-width="1.2124" stroke-miterlimit="10"/>
<path opacity="0.36" d="M423.869 6.10253C423.869 6.10253 382.665 -50.3068 315.57 -38.4028C248.476 -26.4987 263.302 -9.38862 235.287 -19.2611C207.272 -29.1335 143.408 -89.1617 125.506 -3.45246C107.626 82.2568 -74.8486 -67.0043 -74.8486 -67.0043" stroke="#00A49B" stroke-width="1.2124" stroke-miterlimit="10"/>
<path opacity="0.36" d="M424.267 9.8484C424.267 9.8484 381.425 -52.4971 314.331 -40.5931C247.236 -28.689 262.062 -7.35692 234.047 -17.1976C206.032 -27.07 143.231 -91.1933 125.328 -5.48402C107.426 80.2252 -77.2832 -64.7186 -77.2832 -64.7186" stroke="#00A49B" stroke-width="1.2124" stroke-miterlimit="10"/>
<path opacity="0.36" d="M424.665 13.5941C424.665 13.5941 380.164 -54.6558 313.07 -42.7517C245.975 -30.8477 260.779 -5.26189 232.786 -15.1343C204.793 -25.0068 143.032 -93.2249 125.129 -7.51572C107.249 78.1935 -79.7393 -62.4014 -79.7393 -62.4014" stroke="#00A49B" stroke-width="1.2124" stroke-miterlimit="10"/>
<path opacity="0.36" d="M425.063 17.34C425.063 17.34 378.925 -56.8461 311.808 -44.942C244.713 -33.038 259.518 -3.19844 231.525 -13.0709C203.51 -22.9433 142.832 -95.2565 124.93 -9.57901C107.05 76.1302 -82.2178 -60.1475 -82.2178 -60.1475" stroke="#00A49B" stroke-width="1.2124" stroke-miterlimit="10"/>
<path opacity="0.36" d="M425.462 21.1175C425.462 21.1175 377.664 -58.973 310.569 -47.0689C243.475 -35.1649 258.279 -1.1034 230.286 -10.9441C202.271 -20.8165 142.656 -97.2564 124.754 -11.5472C106.851 74.162 -84.6514 -57.7985 -84.6514 -57.7985" stroke="#00A49B" stroke-width="1.2124" stroke-miterlimit="10"/>
<path opacity="0.36" d="M425.86 24.8634C425.86 24.8634 376.424 -61.1633 309.307 -49.2592C242.213 -37.3552 257.017 0.960044 229.024 -8.88065C201.009 -18.7531 142.434 -99.288 124.554 -13.5788C106.674 72.0987 -87.1084 -55.5128 -87.1084 -55.5128" stroke="#00A49B" stroke-width="1.2124" stroke-miterlimit="10"/>
<path opacity="0.36" d="M426.258 28.6091C426.258 28.6091 375.163 -63.3219 308.068 -51.4179C240.974 -39.5138 255.778 3.0551 227.785 -6.81734C199.77 -16.6898 142.257 -101.32 124.377 -15.6105C106.497 70.0988 -89.5645 -53.2273 -89.5645 -53.2273" stroke="#00A49B" stroke-width="1.2124" stroke-miterlimit="10"/>
<path opacity="0.36" d="M426.657 32.3549C426.657 32.3549 373.902 -65.5123 306.807 -53.6083C239.713 -41.6725 254.517 5.11844 226.524 -4.72225C198.509 -14.5947 142.058 -103.32 124.178 -17.6421C106.298 68.0671 -92.0205 -50.91 -92.0205 -50.91" stroke="#00A49B" stroke-width="1.2124" stroke-miterlimit="10"/>
<path opacity="0.36" d="M427.055 36.1326C427.055 36.1326 372.662 -67.6391 305.568 -55.7351C238.473 -43.831 253.277 7.21362 225.284 -2.62707C197.269 -12.4995 141.881 -105.319 124.001 -19.6419C106.121 66.0673 -94.4551 -48.5926 -94.4551 -48.5926" stroke="#00A49B" stroke-width="1.2124" stroke-miterlimit="10"/>
<path opacity="0.36" d="M427.453 39.8783C427.453 39.8783 371.401 -69.8295 304.306 -57.9255C237.212 -46.0214 252.016 9.27692 224.023 -0.595514C196.008 -10.4679 141.682 -107.415 123.801 -21.7054C105.921 64.0039 -96.9336 -46.3389 -96.9336 -46.3389" stroke="#00A49B" stroke-width="1.2124" stroke-miterlimit="10"/>
<path opacity="0.36" d="M427.852 43.6242C427.852 43.6242 370.162 -71.988 303.045 -60.084C235.951 -48.1799 250.755 11.3404 222.762 1.49969C194.747 -8.37274 141.483 -109.414 123.603 -23.7052C105.722 62.004 -99.3896 -44.0214 -99.3896 -44.0214" stroke="#00A49B" stroke-width="1.2124" stroke-miterlimit="10"/>
<path opacity="0.36" d="M428.228 47.3699C428.228 47.3699 368.879 -74.1785 301.784 -62.2427C234.689 -50.3386 249.494 13.4354 221.501 3.59473C193.486 -6.2777 141.284 -111.414 123.404 -25.7369C105.523 59.9406 -101.846 -41.7359 -101.846 -41.7359" stroke="#00A49B" stroke-width="1.2124" stroke-miterlimit="10"/>
<path opacity="0.36" d="M428.626 51.1475C428.626 51.1475 367.639 -76.3053 300.522 -64.4012C233.427 -52.4972 248.232 15.5306 220.239 5.65815C192.224 -4.21428 141.084 -113.446 123.204 -27.7685C105.324 57.9408 -104.303 -39.4503 -104.303 -39.4503" stroke="#00A49B" stroke-width="1.2124" stroke-miterlimit="10"/>
<path opacity="0.36" d="M429.024 54.8933C429.024 54.8933 366.377 -78.4957 299.283 -66.5599C232.188 -54.6558 246.993 17.6256 219 7.75319C190.984 -2.11925 140.907 -115.478 123.027 -29.8002C105.147 55.9091 -106.759 -37.1331 -106.759 -37.1331" stroke="#00A49B" stroke-width="1.2124" stroke-miterlimit="10"/>
<path opacity="0.36" d="M429.423 58.6391C429.423 58.6391 365.116 -80.6543 298.022 -68.7502C230.927 -56.8461 245.731 19.6573 217.739 9.8166C189.723 -0.0558383 140.708 -117.509 122.828 -31.8C104.948 53.9092 -109.215 -34.8157 -109.215 -34.8157" stroke="#00A49B" stroke-width="1.2124" stroke-miterlimit="10"/>
</g>
</g>
<defs>
<linearGradient id="paint0_linear" x1="-194.621" y1="-11.6561" x2="536.183" y2="-11.0066" gradientUnits="userSpaceOnUse">
<stop offset="0.3156" stop-color="#213E41"/>
<stop offset="0.3557" stop-color="#1F4447"/>
<stop offset="0.4111" stop-color="#195656"/>
<stop offset="0.4754" stop-color="#107370"/>
<stop offset="0.5459" stop-color="#039C94"/>
<stop offset="0.5587" stop-color="#00A49B"/>
<stop offset="0.7402" stop-color="#FFE800"/>
</linearGradient>
<linearGradient id="paint1_linear" x1="-198.602" y1="-11.1952" x2="536.817" y2="-10.5416" gradientUnits="userSpaceOnUse">
<stop offset="0.3156" stop-color="#213E41"/>
<stop offset="0.3557" stop-color="#1F4447"/>
<stop offset="0.4111" stop-color="#195656"/>
<stop offset="0.4754" stop-color="#107370"/>
<stop offset="0.5459" stop-color="#039C94"/>
<stop offset="0.5587" stop-color="#00A49B"/>
<stop offset="0.7402" stop-color="#FFE800"/>
</linearGradient>
<linearGradient id="paint2_linear" x1="-202.583" y1="-10.7267" x2="537.447" y2="-10.0689" gradientUnits="userSpaceOnUse">
<stop offset="0.3156" stop-color="#213E41"/>
<stop offset="0.3557" stop-color="#1F4447"/>
<stop offset="0.4111" stop-color="#195656"/>
<stop offset="0.4754" stop-color="#107370"/>
<stop offset="0.5459" stop-color="#039C94"/>
<stop offset="0.5587" stop-color="#00A49B"/>
<stop offset="0.7402" stop-color="#FFE800"/>
</linearGradient>
<linearGradient id="paint3_linear" x1="-206.565" y1="-10.2497" x2="538.069" y2="-9.58792" gradientUnits="userSpaceOnUse">
<stop offset="0.3156" stop-color="#213E41"/>
<stop offset="0.3557" stop-color="#1F4447"/>
<stop offset="0.4111" stop-color="#195656"/>
<stop offset="0.4754" stop-color="#107370"/>
<stop offset="0.5459" stop-color="#039C94"/>
<stop offset="0.5587" stop-color="#00A49B"/>
<stop offset="0.7402" stop-color="#FFE800"/>
</linearGradient>
<linearGradient id="paint4_linear" x1="-210.546" y1="-9.76433" x2="538.686" y2="-9.09843" gradientUnits="userSpaceOnUse">
<stop offset="0.3156" stop-color="#213E41"/>
<stop offset="0.3557" stop-color="#1F4447"/>
<stop offset="0.4111" stop-color="#195656"/>
<stop offset="0.4754" stop-color="#107370"/>
<stop offset="0.5459" stop-color="#039C94"/>
<stop offset="0.5587" stop-color="#00A49B"/>
<stop offset="0.7402" stop-color="#FFE800"/>
</linearGradient>
<linearGradient id="paint5_linear" x1="-214.527" y1="-9.26973" x2="539.295" y2="-8.59974" gradientUnits="userSpaceOnUse">
<stop offset="0.3156" stop-color="#213E41"/>
<stop offset="0.3557" stop-color="#1F4447"/>
<stop offset="0.4111" stop-color="#195656"/>
<stop offset="0.4754" stop-color="#107370"/>
<stop offset="0.5459" stop-color="#039C94"/>
<stop offset="0.5587" stop-color="#00A49B"/>
<stop offset="0.7402" stop-color="#FFE800"/>
</linearGradient>
<linearGradient id="paint6_linear" x1="-218.508" y1="-8.76561" x2="539.9" y2="-8.09155" gradientUnits="userSpaceOnUse">
<stop offset="0.3156" stop-color="#213E41"/>
<stop offset="0.3557" stop-color="#1F4447"/>
<stop offset="0.4111" stop-color="#195656"/>
<stop offset="0.4754" stop-color="#107370"/>
<stop offset="0.5459" stop-color="#039C94"/>
<stop offset="0.5587" stop-color="#00A49B"/>
<stop offset="0.7402" stop-color="#FFE800"/>
</linearGradient>
<linearGradient id="paint7_linear" x1="-222.488" y1="-8.25148" x2="540.506" y2="-7.57334" gradientUnits="userSpaceOnUse">
<stop offset="0.3156" stop-color="#213E41"/>
<stop offset="0.3557" stop-color="#1F4447"/>
<stop offset="0.4111" stop-color="#195656"/>
<stop offset="0.4754" stop-color="#107370"/>
<stop offset="0.5459" stop-color="#039C94"/>
<stop offset="0.5587" stop-color="#00A49B"/>
<stop offset="0.7402" stop-color="#FFE800"/>
</linearGradient>
<linearGradient id="paint8_linear" x1="-226.47" y1="-7.72694" x2="541.151" y2="-7.04469" gradientUnits="userSpaceOnUse">
<stop offset="0.3156" stop-color="#213E41"/>
<stop offset="0.3557" stop-color="#1F4447"/>
<stop offset="0.4111" stop-color="#195656"/>
<stop offset="0.4754" stop-color="#107370"/>
<stop offset="0.5459" stop-color="#039C94"/>
<stop offset="0.5587" stop-color="#00A49B"/>
<stop offset="0.7402" stop-color="#FFE800"/>
</linearGradient>
<linearGradient id="paint9_linear" x1="-230.451" y1="-7.19122" x2="541.824" y2="-6.50483" gradientUnits="userSpaceOnUse">
<stop offset="0.3156" stop-color="#213E41"/>
<stop offset="0.3557" stop-color="#1F4447"/>
<stop offset="0.4111" stop-color="#195656"/>
<stop offset="0.4754" stop-color="#107370"/>
<stop offset="0.5459" stop-color="#039C94"/>
<stop offset="0.5587" stop-color="#00A49B"/>
<stop offset="0.7402" stop-color="#FFE800"/>
</linearGradient>
<linearGradient id="paint10_linear" x1="-234.431" y1="-6.64395" x2="542.493" y2="-5.95343" gradientUnits="userSpaceOnUse">
<stop offset="0.3156" stop-color="#213E41"/>
<stop offset="0.3557" stop-color="#1F4447"/>
<stop offset="0.4111" stop-color="#195656"/>
<stop offset="0.4754" stop-color="#107370"/>
<stop offset="0.5459" stop-color="#039C94"/>
<stop offset="0.5587" stop-color="#00A49B"/>
<stop offset="0.7402" stop-color="#FFE800"/>
</linearGradient>
<linearGradient id="paint11_linear" x1="-238.412" y1="-6.08428" x2="543.156" y2="-5.38963" gradientUnits="userSpaceOnUse">
<stop offset="0.3156" stop-color="#213E41"/>
<stop offset="0.3557" stop-color="#1F4447"/>
<stop offset="0.4111" stop-color="#195656"/>
<stop offset="0.4754" stop-color="#107370"/>
<stop offset="0.5459" stop-color="#039C94"/>
<stop offset="0.5587" stop-color="#00A49B"/>
<stop offset="0.7402" stop-color="#FFE800"/>
</linearGradient>
<linearGradient id="paint12_linear" x1="-242.393" y1="-5.51156" x2="543.815" y2="-4.81279" gradientUnits="userSpaceOnUse">
<stop offset="0.3156" stop-color="#213E41"/>
<stop offset="0.3557" stop-color="#1F4447"/>
<stop offset="0.4111" stop-color="#195656"/>
<stop offset="0.4754" stop-color="#107370"/>
<stop offset="0.5459" stop-color="#039C94"/>
<stop offset="0.5587" stop-color="#00A49B"/>
<stop offset="0.7402" stop-color="#FFE800"/>
</linearGradient>
<linearGradient id="paint13_linear" x1="-246.374" y1="-4.92525" x2="544.471" y2="-4.22236" gradientUnits="userSpaceOnUse">
<stop offset="0.3156" stop-color="#213E41"/>
<stop offset="0.3557" stop-color="#1F4447"/>
<stop offset="0.4111" stop-color="#195656"/>
<stop offset="0.4754" stop-color="#107370"/>
<stop offset="0.5459" stop-color="#039C94"/>
<stop offset="0.5587" stop-color="#00A49B"/>
<stop offset="0.7402" stop-color="#FFE800"/>
</linearGradient>
<linearGradient id="paint14_linear" x1="-250.355" y1="-4.3243" x2="545.125" y2="-3.61728" gradientUnits="userSpaceOnUse">
<stop offset="0.3156" stop-color="#213E41"/>
<stop offset="0.3557" stop-color="#1F4447"/>
<stop offset="0.4111" stop-color="#195656"/>
<stop offset="0.4754" stop-color="#107370"/>
<stop offset="0.5459" stop-color="#039C94"/>
<stop offset="0.5587" stop-color="#00A49B"/>
<stop offset="0.7402" stop-color="#FFE800"/>
</linearGradient>
<linearGradient id="paint15_linear" x1="-254.335" y1="-3.70797" x2="545.777" y2="-2.99684" gradientUnits="userSpaceOnUse">
<stop offset="0.3156" stop-color="#213E41"/>
<stop offset="0.3557" stop-color="#1F4447"/>
<stop offset="0.4111" stop-color="#195656"/>
<stop offset="0.4754" stop-color="#107370"/>
<stop offset="0.5459" stop-color="#039C94"/>
<stop offset="0.5587" stop-color="#00A49B"/>
<stop offset="0.7402" stop-color="#FFE800"/>
</linearGradient>
<linearGradient id="paint16_linear" x1="-258.316" y1="-3.0755" x2="546.427" y2="-2.36026" gradientUnits="userSpaceOnUse">
<stop offset="0.3156" stop-color="#213E41"/>
<stop offset="0.3557" stop-color="#1F4447"/>
<stop offset="0.4111" stop-color="#195656"/>
<stop offset="0.4754" stop-color="#107370"/>
<stop offset="0.5459" stop-color="#039C94"/>
<stop offset="0.5587" stop-color="#00A49B"/>
<stop offset="0.7402" stop-color="#FFE800"/>
</linearGradient>
<linearGradient id="paint17_linear" x1="-262.297" y1="-2.42559" x2="547.076" y2="-1.70623" gradientUnits="userSpaceOnUse">
<stop offset="0.3156" stop-color="#213E41"/>
<stop offset="0.3557" stop-color="#1F4447"/>
<stop offset="0.4111" stop-color="#195656"/>
<stop offset="0.4754" stop-color="#107370"/>
<stop offset="0.5459" stop-color="#039C94"/>
<stop offset="0.5587" stop-color="#00A49B"/>
<stop offset="0.7402" stop-color="#FFE800"/>
</linearGradient>
<linearGradient id="paint18_linear" x1="-266.278" y1="-1.75731" x2="547.724" y2="-1.03383" gradientUnits="userSpaceOnUse">
<stop offset="0.3156" stop-color="#213E41"/>
<stop offset="0.3557" stop-color="#1F4447"/>
<stop offset="0.4111" stop-color="#195656"/>
<stop offset="0.4754" stop-color="#107370"/>
<stop offset="0.5459" stop-color="#039C94"/>
<stop offset="0.5587" stop-color="#00A49B"/>
<stop offset="0.7402" stop-color="#FFE800"/>
</linearGradient>
<linearGradient id="paint19_linear" x1="-270.258" y1="-1.06965" x2="548.372" y2="-0.342065" gradientUnits="userSpaceOnUse">
<stop offset="0.3156" stop-color="#213E41"/>
<stop offset="0.3557" stop-color="#1F4447"/>
<stop offset="0.4111" stop-color="#195656"/>
<stop offset="0.4754" stop-color="#107370"/>
<stop offset="0.5459" stop-color="#039C94"/>
<stop offset="0.5587" stop-color="#00A49B"/>
<stop offset="0.7402" stop-color="#FFE800"/>
</linearGradient>
<linearGradient id="paint20_linear" x1="-274.239" y1="-0.361067" x2="549.019" y2="0.370634" gradientUnits="userSpaceOnUse">
<stop offset="0.3156" stop-color="#213E41"/>
<stop offset="0.3557" stop-color="#1F4447"/>
<stop offset="0.4111" stop-color="#195656"/>
<stop offset="0.4754" stop-color="#107370"/>
<stop offset="0.5459" stop-color="#039C94"/>
<stop offset="0.5587" stop-color="#00A49B"/>
<stop offset="0.7402" stop-color="#FFE800"/>
</linearGradient>
<linearGradient id="paint21_linear" x1="-278.223" y1="3.3453" x2="549.662" y2="4.08111" gradientUnits="userSpaceOnUse">
<stop offset="0.3156" stop-color="#213E41"/>
<stop offset="0.3557" stop-color="#1F4447"/>
<stop offset="0.4111" stop-color="#195656"/>
<stop offset="0.4754" stop-color="#107370"/>
<stop offset="0.5459" stop-color="#039C94"/>
<stop offset="0.5587" stop-color="#00A49B"/>
<stop offset="0.7402" stop-color="#FFE800"/>
</linearGradient>
<linearGradient id="paint22_linear" x1="-282.207" y1="8.24399" x2="550.305" y2="8.98392" gradientUnits="userSpaceOnUse">
<stop offset="0.3156" stop-color="#213E41"/>
<stop offset="0.3557" stop-color="#1F4447"/>
<stop offset="0.4111" stop-color="#195656"/>
<stop offset="0.4754" stop-color="#107370"/>
<stop offset="0.5459" stop-color="#039C94"/>
<stop offset="0.5587" stop-color="#00A49B"/>
<stop offset="0.7402" stop-color="#FFE800"/>
</linearGradient>
<linearGradient id="paint23_linear" x1="-286.191" y1="12.8112" x2="550.947" y2="13.5552" gradientUnits="userSpaceOnUse">
<stop offset="0.3156" stop-color="#213E41"/>
<stop offset="0.3557" stop-color="#1F4447"/>
<stop offset="0.4111" stop-color="#195656"/>
<stop offset="0.4754" stop-color="#107370"/>
<stop offset="0.5459" stop-color="#039C94"/>
<stop offset="0.5587" stop-color="#00A49B"/>
<stop offset="0.7402" stop-color="#FFE800"/>
</linearGradient>
<linearGradient id="paint24_linear" x1="-290.173" y1="15.0298" x2="551.592" y2="15.778" gradientUnits="userSpaceOnUse">
<stop offset="0.3156" stop-color="#213E41"/>
<stop offset="0.3557" stop-color="#1F4447"/>
<stop offset="0.4111" stop-color="#195656"/>
<stop offset="0.4754" stop-color="#107370"/>
<stop offset="0.5459" stop-color="#039C94"/>
<stop offset="0.5587" stop-color="#00A49B"/>
<stop offset="0.7402" stop-color="#FFE800"/>
</linearGradient>
<linearGradient id="paint25_linear" x1="-294.155" y1="16.378" x2="552.236" y2="17.1303" gradientUnits="userSpaceOnUse">
<stop offset="0.3156" stop-color="#213E41"/>
<stop offset="0.3557" stop-color="#1F4447"/>
<stop offset="0.4111" stop-color="#195656"/>
<stop offset="0.4754" stop-color="#107370"/>
<stop offset="0.5459" stop-color="#039C94"/>
<stop offset="0.5587" stop-color="#00A49B"/>
<stop offset="0.7402" stop-color="#FFE800"/>
</linearGradient>
<linearGradient id="paint26_linear" x1="-298.135" y1="17.6961" x2="552.882" y2="18.4524" gradientUnits="userSpaceOnUse">
<stop offset="0.3156" stop-color="#213E41"/>
<stop offset="0.3557" stop-color="#1F4447"/>
<stop offset="0.4111" stop-color="#195656"/>
<stop offset="0.4754" stop-color="#107370"/>
<stop offset="0.5459" stop-color="#039C94"/>
<stop offset="0.5587" stop-color="#00A49B"/>
<stop offset="0.7402" stop-color="#FFE800"/>
</linearGradient>
<linearGradient id="paint27_linear" x1="-302.117" y1="19.0103" x2="553.525" y2="19.7708" gradientUnits="userSpaceOnUse">
<stop offset="0.3156" stop-color="#213E41"/>
<stop offset="0.3557" stop-color="#1F4447"/>
<stop offset="0.4111" stop-color="#195656"/>
<stop offset="0.4754" stop-color="#107370"/>
<stop offset="0.5459" stop-color="#039C94"/>
<stop offset="0.5587" stop-color="#00A49B"/>
<stop offset="0.7402" stop-color="#FFE800"/>
</linearGradient>
<linearGradient id="paint28_linear" x1="-306.098" y1="20.3215" x2="554.17" y2="21.0861" gradientUnits="userSpaceOnUse">
<stop offset="0.3156" stop-color="#213E41"/>
<stop offset="0.3557" stop-color="#1F4447"/>
<stop offset="0.4111" stop-color="#195656"/>
<stop offset="0.4754" stop-color="#107370"/>
<stop offset="0.5459" stop-color="#039C94"/>
<stop offset="0.5587" stop-color="#00A49B"/>
<stop offset="0.7402" stop-color="#FFE800"/>
</linearGradient>
<linearGradient id="paint29_linear" x1="-310.079" y1="21.6301" x2="554.814" y2="22.3988" gradientUnits="userSpaceOnUse">
<stop offset="0.3156" stop-color="#213E41"/>
<stop offset="0.3557" stop-color="#1F4447"/>
<stop offset="0.4111" stop-color="#195656"/>
<stop offset="0.4754" stop-color="#107370"/>
<stop offset="0.5459" stop-color="#039C94"/>
<stop offset="0.5587" stop-color="#00A49B"/>
<stop offset="0.7402" stop-color="#FFE800"/>
</linearGradient>
<linearGradient id="paint30_linear" x1="-314.061" y1="22.9363" x2="555.458" y2="23.7091" gradientUnits="userSpaceOnUse">
<stop offset="0.3156" stop-color="#213E41"/>
<stop offset="0.3557" stop-color="#1F4447"/>
<stop offset="0.4111" stop-color="#195656"/>
<stop offset="0.4754" stop-color="#107370"/>
<stop offset="0.5459" stop-color="#039C94"/>
<stop offset="0.5587" stop-color="#00A49B"/>
<stop offset="0.7402" stop-color="#FFE800"/>
</linearGradient>
<linearGradient id="paint31_linear" x1="-318.042" y1="24.2405" x2="556.102" y2="25.0174" gradientUnits="userSpaceOnUse">
<stop offset="0.3156" stop-color="#213E41"/>
<stop offset="0.3557" stop-color="#1F4447"/>
<stop offset="0.4111" stop-color="#195656"/>
<stop offset="0.4754" stop-color="#107370"/>
<stop offset="0.5459" stop-color="#039C94"/>
<stop offset="0.5587" stop-color="#00A49B"/>
<stop offset="0.7402" stop-color="#FFE800"/>
</linearGradient>
</defs>
</svg>
