<svg xmlns="http://www.w3.org/2000/svg" width="16" height="13.714" viewBox="0 0 16 13.714"><path d="M14.115,2.168A3.436,3.436,0,0,0,15.558.254a6.366,6.366,0,0,1-2.085.84A3.2,3.2,0,0,0,11.077,0,3.375,3.375,0,0,0,7.8,3.462a3.622,3.622,0,0,0,.084.788A9.168,9.168,0,0,1,1.114.633,3.6,3.6,0,0,0,.67,2.374,3.517,3.517,0,0,0,2.13,5.257,3.165,3.165,0,0,1,.642,4.824v.043A3.421,3.421,0,0,0,3.277,8.261a3.056,3.056,0,0,1-.866.122,3.087,3.087,0,0,1-.617-.061,3.311,3.311,0,0,0,3.066,2.4A6.373,6.373,0,0,1,.783,12.207,6.2,6.2,0,0,1,0,12.159a8.95,8.95,0,0,0,5.032,1.555c6.039,0,9.339-5.275,9.339-9.85,0-.151,0-.3-.008-.448A6.862,6.862,0,0,0,16,1.623,6.291,6.291,0,0,1,14.115,2.168Z" fill="#fff"/></svg>