<svg xmlns="http://www.w3.org/2000/svg" width="16" height="14" viewBox="0 0 16 14"><path d="M14.115,2.213A3.5,3.5,0,0,0,15.558.259a6.293,6.293,0,0,1-2.085.857A3.168,3.168,0,0,0,11.077,0,3.415,3.415,0,0,0,7.8,3.534a3.771,3.771,0,0,0,.084.8A9.117,9.117,0,0,1,1.114.646,3.735,3.735,0,0,0,.67,2.424,3.614,3.614,0,0,0,2.13,5.366,3.118,3.118,0,0,1,.642,4.924v.043A3.479,3.479,0,0,0,3.277,8.433a3.073,3.073,0,0,1-1.483.062A3.324,3.324,0,0,0,4.86,10.948,6.3,6.3,0,0,1,.783,12.461,6.075,6.075,0,0,1,0,12.413,8.823,8.823,0,0,0,5.032,14c6.039,0,9.339-5.385,9.339-10.056,0-.154,0-.306-.008-.457A6.954,6.954,0,0,0,16,1.657,6.194,6.194,0,0,1,14.115,2.213Z" fill="#00aa9f"/></svg>